<svg xmlns="http://www.w3.org/2000/svg" viewBox="0 0 32 32" fill="none">
  <rect width="32" height="32" rx="8" fill="#1b1f23"/>
  <!-- GitHub-style repo/book icon -->
  <path d="M7 8.5A1.5 1.5 0 0 1 8.5 7H22a.5.5 0 0 1 .5.5v17a.5.5 0 0 1-.5.5H8.5A1.5 1.5 0 0 1 7 23.5v-15z" fill="#30363d" stroke="#8b949e" stroke-width="1"/>
  <path d="M7 23.5A1.5 1.5 0 0 0 8.5 25H22.5a.5.5 0 0 0 .5-.5V7" stroke="#8b949e" stroke-width="1" stroke-linecap="round"/>
  <line x1="10" y1="11" x2="19" y2="11" stroke="#58a6ff" stroke-width="1.5" stroke-linecap="round"/>
  <line x1="10" y1="14.5" x2="19" y2="14.5" stroke="#58a6ff" stroke-width="1.5" stroke-linecap="round"/>
  <line x1="10" y1="18" x2="15" y2="18" stroke="#58a6ff" stroke-width="1.5" stroke-linecap="round"/>
</svg>
